<svg width="155" height="207" viewBox="0 0 155 207" fill="none" xmlns="http://www.w3.org/2000/svg">
<path d="M0.97253 1.00042C0.696805 1.0156 0.485584 1.25141 0.500755 1.52714C0.515926 1.80286 0.751745 2.01408 1.02747 1.99891L0.97253 1.00042ZM149.518 60.0723L149.976 59.8711L149.518 60.0723ZM128.131 140.639L128.475 141.002L128.131 140.639ZM80.2155 154.597L79.9883 155.042L80.2155 154.597ZM74.91 137.111L75.3774 137.289L74.91 137.111ZM91.3239 132.885L91.4808 132.41L91.3239 132.885ZM100.235 141.298L100.643 141.009L100.235 141.298ZM108.691 164.328L108.191 164.332L108.691 164.328ZM87.8421 197.711L87.6324 197.257L87.8421 197.711ZM67.0347 203.449L67.1192 203.942L67.0347 203.449ZM61.8121 205L67.4584 206.205L65.6788 200.712L61.8121 205ZM1.02747 1.99891C23.7408 0.749152 54.3714 0.752788 82.523 8.36595C110.669 15.9776 136.273 31.1758 149.061 60.2734L149.976 59.8711C137.023 30.3962 111.097 15.0574 82.7841 7.40063C54.4765 -0.254707 23.7183 -0.25112 0.97253 1.00042L1.02747 1.99891ZM149.061 60.2734C154.816 73.3701 154.644 88.49 150.448 102.794C146.252 117.098 138.043 130.547 127.787 140.276L128.475 141.002C138.863 131.147 147.163 117.544 151.407 103.076C155.651 88.6079 155.85 73.2363 149.976 59.8711L149.061 60.2734ZM127.787 140.276C122.676 145.124 114.544 150.51 105.816 153.718C97.0747 156.931 87.8388 157.925 80.4427 154.151L79.9883 155.042C87.7482 159.001 97.3119 157.909 106.161 154.657C115.021 151.4 123.269 145.94 128.475 141.002L127.787 140.276ZM80.4427 154.151C78.1502 152.982 76.4196 149.985 75.4978 146.572C74.5793 143.172 74.5171 139.552 75.3774 137.289L74.4426 136.933C73.4788 139.469 73.5845 143.324 74.5324 146.833C75.4769 150.33 77.311 153.676 79.9883 155.042L80.4427 154.151ZM75.3774 137.289C75.7361 136.345 76.5996 135.522 77.847 134.842C79.0875 134.165 80.6523 133.662 82.3133 133.331C85.6534 132.665 89.2419 132.723 91.1669 133.36L91.4808 132.41C89.3278 131.698 85.5466 131.667 82.1179 132.35C80.3945 132.693 78.7252 133.224 77.3683 133.964C76.0183 134.7 74.9212 135.674 74.4426 136.933L75.3774 137.289ZM91.1669 133.36C93.0085 133.968 94.6385 135.259 96.0862 136.799C97.533 138.338 98.7641 140.089 99.8277 141.588L100.643 141.009C99.5879 139.522 98.3171 137.713 96.8149 136.114C95.3136 134.517 93.5472 133.093 91.4808 132.41L91.1669 133.36ZM99.8277 141.588C104.703 148.455 108.135 156.057 108.191 164.332L109.191 164.325C109.133 155.77 105.585 147.97 100.643 141.009L99.8277 141.588ZM108.191 164.332C108.284 178.005 100.864 191.141 87.6324 197.257L88.0519 198.164C101.668 191.871 109.287 178.359 109.191 164.325L108.191 164.332ZM87.6324 197.257C81.1444 200.255 74.0766 201.733 66.9501 202.956L67.1192 203.942C74.2565 202.717 81.4361 201.222 88.0519 198.164L87.6324 197.257ZM66.9501 202.956C66.6188 203.013 66.3044 203.067 66.005 203.12L66.1812 204.105C66.4764 204.052 66.787 203.999 67.1192 203.942L66.9501 202.956Z" fill="white"/>
</svg>
