<svg width="8" height="321" viewBox="0 0 8 321" fill="none" xmlns="http://www.w3.org/2000/svg">
<path d="M3.96261 0.16C1.25861 0.16 0.426606 2.11 0.426606 4.58C0.426606 7.05 1.25861 9 3.96261 9C6.66661 9 7.49861 7.05 7.49861 4.58C7.49861 2.11 6.66661 0.16 3.96261 0.16ZM6.58861 4.58C6.58861 5.685 6.43261 6.478 6.13361 7.024L2.41561 1.434C2.81861 1.174 3.33861 1.07 3.96261 1.07C5.69161 1.07 6.58861 1.876 6.58861 4.58ZM1.33661 4.58C1.33661 3.475 1.47961 2.682 1.77861 2.136L5.50961 7.726C5.10661 7.986 4.58661 8.09 3.96261 8.09C2.22061 8.09 1.33661 7.271 1.33661 4.58ZM3.44261 26.16H0.426606V27.07H2.53261V35H3.44261V26.16ZM3.96261 52.16C1.25861 52.16 0.426606 54.11 0.426606 56.58C0.426606 59.05 1.25861 61 3.96261 61C6.66661 61 7.49861 59.05 7.49861 56.58C7.49861 54.11 6.66661 52.16 3.96261 52.16ZM6.58861 56.58C6.58861 57.685 6.43261 58.478 6.13361 59.024L2.41561 53.434C2.81861 53.174 3.33861 53.07 3.96261 53.07C5.69161 53.07 6.58861 53.876 6.58861 56.58ZM1.33661 56.58C1.33661 55.475 1.47961 54.682 1.77861 54.136L5.50961 59.726C5.10661 59.986 4.58661 60.09 3.96261 60.09C2.22061 60.09 1.33661 59.271 1.33661 56.58ZM3.44261 78.16H0.426606V79.07H2.53261V87H3.44261V78.16ZM3.44261 104.16H0.426606V105.07H2.53261V113H3.44261V104.16ZM3.44261 130.16H0.426606V131.07H2.53261V139H3.44261V130.16ZM3.96261 156.16C1.25861 156.16 0.426606 158.11 0.426606 160.58C0.426606 163.05 1.25861 165 3.96261 165C6.66661 165 7.49861 163.05 7.49861 160.58C7.49861 158.11 6.66661 156.16 3.96261 156.16ZM6.58861 160.58C6.58861 161.685 6.43261 162.478 6.13361 163.024L2.41561 157.434C2.81861 157.174 3.33861 157.07 3.96261 157.07C5.69161 157.07 6.58861 157.876 6.58861 160.58ZM1.33661 160.58C1.33661 159.475 1.47961 158.682 1.77861 158.136L5.50961 163.726C5.10661 163.986 4.58661 164.09 3.96261 164.09C2.22061 164.09 1.33661 163.271 1.33661 160.58ZM3.96261 182.16C1.25861 182.16 0.426606 184.11 0.426606 186.58C0.426606 189.05 1.25861 191 3.96261 191C6.66661 191 7.49861 189.05 7.49861 186.58C7.49861 184.11 6.66661 182.16 3.96261 182.16ZM6.58861 186.58C6.58861 187.685 6.43261 188.478 6.13361 189.024L2.41561 183.434C2.81861 183.174 3.33861 183.07 3.96261 183.07C5.69161 183.07 6.58861 183.876 6.58861 186.58ZM1.33661 186.58C1.33661 185.475 1.47961 184.682 1.77861 184.136L5.50961 189.726C5.10661 189.986 4.58661 190.09 3.96261 190.09C2.22061 190.09 1.33661 189.271 1.33661 186.58ZM3.96261 208.16C1.25861 208.16 0.426606 210.11 0.426606 212.58C0.426606 215.05 1.25861 217 3.96261 217C6.66661 217 7.49861 215.05 7.49861 212.58C7.49861 210.11 6.66661 208.16 3.96261 208.16ZM6.58861 212.58C6.58861 213.685 6.43261 214.478 6.13361 215.024L2.41561 209.434C2.81861 209.174 3.33861 209.07 3.96261 209.07C5.69161 209.07 6.58861 209.876 6.58861 212.58ZM1.33661 212.58C1.33661 211.475 1.47961 210.682 1.77861 210.136L5.50961 215.726C5.10661 215.986 4.58661 216.09 3.96261 216.09C2.22061 216.09 1.33661 215.271 1.33661 212.58ZM3.96261 234.16C1.25861 234.16 0.426606 236.11 0.426606 238.58C0.426606 241.05 1.25861 243 3.96261 243C6.66661 243 7.49861 241.05 7.49861 238.58C7.49861 236.11 6.66661 234.16 3.96261 234.16ZM6.58861 238.58C6.58861 239.685 6.43261 240.478 6.13361 241.024L2.41561 235.434C2.81861 235.174 3.33861 235.07 3.96261 235.07C5.69161 235.07 6.58861 235.876 6.58861 238.58ZM1.33661 238.58C1.33661 237.475 1.47961 236.682 1.77861 236.136L5.50961 241.726C5.10661 241.986 4.58661 242.09 3.96261 242.09C2.22061 242.09 1.33661 241.271 1.33661 238.58ZM3.44261 260.16H0.426606V261.07H2.53261V269H3.44261V260.16ZM3.44261 286.16H0.426606V287.07H2.53261V295H3.44261V286.16ZM3.44261 312.16H0.426606V313.07H2.53261V321H3.44261V312.16Z" fill="#1C1C1C"/>
</svg>
